<svg width="64" height="64" viewBox="0 0 64 64" xmlns="http://www.w3.org/2000/svg">
  <defs>
    <linearGradient id="grass" x1="0" y1="64" x2="64" y2="30" gradientUnits="userSpaceOnUse">
      <stop offset="0" stop-color="#14532d"></stop>
      <stop offset="1" stop-color="#22c55e"></stop>
    </linearGradient>

    <linearGradient id="ball" x1="20" y1="18" x2="46" y2="48" gradientUnits="userSpaceOnUse">
      <stop offset="0" stop-color="#ffffff"></stop>
      <stop offset="1" stop-color="#dbeafe"></stop>
    </linearGradient>

    <filter id="shadow" x="-20%" y="-20%" width="140%" height="140%">
      <feDropShadow dx="0" dy="3" stdDeviation="2" flood-color="#000000" flood-opacity="0.25"></feDropShadow>
    </filter>
  </defs>

  <rect width="64" height="64" rx="16" fill="#0f172a"></rect>

  <path d="M8 48C18 40 29 39 40 43C48 46 54 45 60 40V64H8V48Z" fill="url(#grass)"></path>

  <g filter="url(#shadow)">
    <circle cx="30" cy="37" r="15" fill="url(#ball)"></circle>

    <circle cx="24" cy="31" r="1.6" fill="#bfdbfe"></circle>
    <circle cx="31" cy="29" r="1.6" fill="#bfdbfe"></circle>
    <circle cx="37" cy="34" r="1.6" fill="#bfdbfe"></circle>
    <circle cx="26" cy="39" r="1.6" fill="#bfdbfe"></circle>
    <circle cx="33" cy="42" r="1.6" fill="#bfdbfe"></circle>
    <circle cx="39" cy="41" r="1.6" fill="#bfdbfe"></circle>
  </g>

  <path d="M45 13V47" stroke="#f8fafc" stroke-width="3" stroke-linecap="round"></path>

  <path d="M47 15L58 20L47 25V15Z" fill="#ef4444"></path>

  <ellipse cx="45" cy="48" rx="9" ry="3" fill="#052e16" opacity="0.55"></ellipse>

  <path d="M18 52C29 48 42 49 54 52" stroke="#bbf7d0" stroke-width="2" stroke-linecap="round" opacity="0.8"></path>
</svg>